<?xml version="1.0" encoding="UTF-8"?>
<svg id="Livello_1" data-name="Livello 1" xmlns="http://www.w3.org/2000/svg" viewBox="0 0 32 32">
  <defs>
    <style>
      .cls-1 {
        fill: #011632;
      }

      .cls-2 {
        fill: #00c1b2;
      }
    </style>
  </defs>
  <path class="cls-2" d="M9.38,22.12c-.72,1.62-2.09,2.47-3.58,2.47-2.74,0-4.72-2.52-4.72-6.16s1.98-6.16,4.72-6.16c1.48,0,2.83.88,3.58,2.47v-7.33h5.17v16.87h-5.17v-2.16ZM7.73,19.87c.81,0,1.46-.56,1.64-1.01v-.79c-.25-.49-.83-1.08-1.64-1.08s-1.48.58-1.48,1.44.65,1.44,1.48,1.44Z"/>
  <path class="cls-1" d="M25.17,24.44h-8.59V7.56h8.32c3.24,0,5.24,2.02,5.24,4.84,0,.92-.43,2.14-.97,2.9.85.74,1.76,2.14,1.76,3.85,0,3.1-2.2,5.29-5.76,5.29ZM22.31,12.38v1.69h1.51c.54,0,.83-.36.83-.83s-.29-.85-.81-.85h-1.53ZM22.31,17.73v1.96h2c.7,0,1.01-.43,1.01-.97s-.31-.99-.99-.99h-2.02Z"/>
</svg>