<?xml version="1.0" encoding="UTF-8"?>
<svg id="Livello_1" data-name="Livello 1" xmlns="http://www.w3.org/2000/svg" viewBox="0 0 388.64 118.5">
  <defs>
    <style>
      .cls-1 {
        fill: #2f2f2f;
      }
    </style>
  </defs>
  <path class="cls-1" d="M61.12,48.6v16.86h3.6v12.54h-16.62l-1.44-3c-3.36,3.84-7.44,4.2-10.2,4.2-7.86,0-13.86-5.64-13.86-17.46s5.7-18.66,16.98-18.66c1.92,0,4.02.18,6.3.6v-1.2c-1.74-.42-4.68-.66-5.88-.6v-5.88h24.72v12.6h-3.6ZM42.7,72.78v-23.76h-1.08v23.76h1.08Z"/>
  <path class="cls-1" d="M103.12,77.04c-4.14,1.38-13.26,2.76-18.42,2.76-12.24,0-19.2-7.08-19.2-19.14,0-10.68,7.74-18.18,19.56-18.18,10.38,0,18.42,4.56,18.42,14.82v4.38h-18.96v9.42h1.08v-8.46h17.52v14.4ZM85.6,57.96v-8.28h-1.08v8.28h1.08Z"/>
  <path class="cls-1" d="M126.64,36v29.46h3.6v12.54h-25.62v-12.54h3.6v-16.86h-3.6v-12.6h22.02Z"/>
  <path class="cls-1" d="M153.94,44.16v21.3h3.6v12.54h-25.62v-12.54h3.6v-8.82h-3.6v-12.48h22.02ZM135.16,43.08v-7.08h19.14v7.08h-19.14Z"/>
  <path class="cls-1" d="M174.04,44.16l9.18,22.2.6-1.38-8.58-20.82h20.4v12.48h-2.7l-8.34,21.36h-16.26l-9.18-21.36h-2.88v-12.48h17.76Z"/>
  <path class="cls-1" d="M233.86,77.04c-4.14,1.38-13.26,2.76-18.42,2.76-12.24,0-19.2-7.08-19.2-19.14,0-10.68,7.74-18.18,19.56-18.18,10.38,0,18.42,4.56,18.42,14.82v4.38h-18.96v9.42h1.08v-8.46h17.52v14.4ZM216.34,57.96v-8.28h-1.08v8.28h1.08Z"/>
  <path class="cls-1" d="M236.02,78v-15.84h5.16v-10.38h-5.16v-15.78h32.22c9.9,0,16.26,6,16.26,13.62,0,2.28-.42,4.62-1.2,6.48,1.38,1.68,2.34,4.38,2.34,7.5,0,8.64-6.3,14.4-17.4,14.4h-32.22ZM264.88,45.9h-1.2v9h1.2v-9ZM264.88,58.86h-1.2v9.24h1.2v-9.24Z"/>
  <path class="cls-1" d="M286.78,61.14c0-10.86,6.3-18.66,19.56-18.66s19.56,7.8,19.56,18.66-6.36,18.66-19.56,18.66-19.56-7.8-19.56-18.66ZM305.8,49.26v23.04h1.08v-23.04h-1.08Z"/>
  <path class="cls-1" d="M326.98,61.14c0-10.86,6.3-18.66,19.56-18.66s19.56,7.8,19.56,18.66-6.36,18.66-19.56,18.66-19.56-7.8-19.56-18.66ZM346,49.26v23.04h1.08v-23.04h-1.08Z"/>
</svg>